<?xml version='1.0' encoding='utf-8'?>
<svg xmlns="http://www.w3.org/2000/svg" baseProfile="tiny" height="300px" version="1.2" viewBox="0,0,200,300" width="200px">
  <defs />
  <circle cx="100" cy="45" fill="none" r="25" stroke="#000000" stroke-width="14" stroke-linecap="round" stroke-linejoin="round" /><path d="M 107.87846202409766,56.38918542133544 A 8,8 0 0,1 92.12153797590234,56.38918542133544" fill="none" stroke="#000000" stroke-linecap="round" stroke-width="14" stroke-linejoin="round" /><line stroke="#000000" stroke-linecap="round" stroke-width="14" x1="100" x2="100" y1="70" y2="180" stroke-linejoin="round" /><line stroke="#000000" stroke-linecap="round" stroke-width="14" x1="100" x2="60" y1="70" y2="95" stroke-linejoin="round" /><line stroke="#000000" stroke-linecap="round" stroke-width="14" x1="60" x2="50" y1="95" y2="165" stroke-linejoin="round" /><line stroke="#000000" stroke-linecap="round" stroke-width="14" x1="100" x2="140" y1="70" y2="95" stroke-linejoin="round" /><line stroke="#000000" stroke-linecap="round" stroke-width="14" x1="140" x2="150" y1="95" y2="165" stroke-linejoin="round" /><line stroke="#000000" stroke-linecap="round" stroke-width="14" x1="100" x2="70" y1="180" y2="230" stroke-linejoin="round" /><line stroke="#000000" stroke-linecap="round" stroke-width="14" x1="70" x2="65" y1="230" y2="280" stroke-linejoin="round" /><line stroke="#000000" stroke-linecap="round" stroke-width="14" x1="100" x2="130" y1="180" y2="230" stroke-linejoin="round" /><line stroke="#000000" stroke-linecap="round" stroke-width="14" x1="130" x2="135" y1="230" y2="280" stroke-linejoin="round" /><circle cx="100" cy="45" fill="none" r="25" stroke="#FFFFFF" stroke-width="8" stroke-linecap="round" stroke-linejoin="round" />
  <circle cx="92" cy="42" fill="#000000" r="2" stroke="#000000" stroke-width="1" />
  <circle cx="108" cy="42" fill="#000000" r="2" stroke="#000000" stroke-width="1" />
  <path d="M 107.87846202409766,56.38918542133544 A 8,8 0 0,1 92.12153797590234,56.38918542133544" fill="none" stroke="#FFFFFF" stroke-linecap="round" stroke-width="8" stroke-linejoin="round" />
  <line stroke="#FFFFFF" stroke-linecap="round" stroke-width="8" x1="100" x2="100" y1="70" y2="180" stroke-linejoin="round" />
  <line stroke="#FFFFFF" stroke-linecap="round" stroke-width="8" x1="100" x2="60" y1="70" y2="95" stroke-linejoin="round" />
  <line stroke="#FFFFFF" stroke-linecap="round" stroke-width="8" x1="60" x2="50" y1="95" y2="165" stroke-linejoin="round" />
  <line stroke="#FFFFFF" stroke-linecap="round" stroke-width="8" x1="100" x2="140" y1="70" y2="95" stroke-linejoin="round" />
  <line stroke="#FFFFFF" stroke-linecap="round" stroke-width="8" x1="140" x2="150" y1="95" y2="165" stroke-linejoin="round" />
  <line stroke="#FFFFFF" stroke-linecap="round" stroke-width="8" x1="100" x2="70" y1="180" y2="230" stroke-linejoin="round" />
  <line stroke="#FFFFFF" stroke-linecap="round" stroke-width="8" x1="70" x2="65" y1="230" y2="280" stroke-linejoin="round" />
  <line stroke="#FFFFFF" stroke-linecap="round" stroke-width="8" x1="100" x2="130" y1="180" y2="230" stroke-linejoin="round" />
  <line stroke="#FFFFFF" stroke-linecap="round" stroke-width="8" x1="130" x2="135" y1="230" y2="280" stroke-linejoin="round" />
</svg>