<?xml version='1.0' encoding='utf-8'?>
<svg xmlns="http://www.w3.org/2000/svg" baseProfile="tiny" height="300px" version="1.2" viewBox="0,0,200,300" width="200px">
  <defs />
  <circle cx="100" cy="45" fill="none" r="25" stroke="#000000" stroke-width="14" stroke-linecap="round" stroke-linejoin="round" /><line stroke="#000000" stroke-linecap="round" stroke-width="14" x1="94" x2="106" y1="55" y2="55" stroke-linejoin="round" /><line stroke="#000000" stroke-linecap="round" stroke-width="14" x1="100" x2="100" y1="70" y2="180" stroke-linejoin="round" /><line stroke="#000000" stroke-linecap="round" stroke-width="14" x1="100" x2="60" y1="70" y2="95" stroke-linejoin="round" /><line stroke="#000000" stroke-linecap="round" stroke-width="14" x1="60" x2="50" y1="95" y2="165" stroke-linejoin="round" /><line stroke="#000000" stroke-linecap="round" stroke-width="14" x1="100" x2="140" y1="70" y2="95" stroke-linejoin="round" /><line stroke="#000000" stroke-linecap="round" stroke-width="14" x1="140" x2="150" y1="95" y2="165" stroke-linejoin="round" /><line stroke="#000000" stroke-linecap="round" stroke-width="14" x1="100" x2="55" y1="180" y2="225" stroke-linejoin="round" /><line stroke="#000000" stroke-linecap="round" stroke-width="14" x1="55" x2="35" y1="225" y2="275" stroke-linejoin="round" /><line stroke="#000000" stroke-linecap="round" stroke-width="14" x1="100" x2="145" y1="180" y2="225" stroke-linejoin="round" /><line stroke="#000000" stroke-linecap="round" stroke-width="14" x1="145" x2="165" y1="225" y2="275" stroke-linejoin="round" /><circle cx="100" cy="45" fill="none" r="25" stroke="#FFFFFF" stroke-width="8" stroke-linecap="round" stroke-linejoin="round" />
  <circle cx="92" cy="42" fill="#000000" r="2" stroke="#000000" stroke-width="1" />
  <circle cx="108" cy="42" fill="#000000" r="2" stroke="#000000" stroke-width="1" />
  <line stroke="#FFFFFF" stroke-linecap="round" stroke-width="8" x1="94" x2="106" y1="55" y2="55" stroke-linejoin="round" />
  <line stroke="#FFFFFF" stroke-linecap="round" stroke-width="8" x1="100" x2="100" y1="70" y2="180" stroke-linejoin="round" />
  <line stroke="#FFFFFF" stroke-linecap="round" stroke-width="8" x1="100" x2="60" y1="70" y2="95" stroke-linejoin="round" />
  <line stroke="#FFFFFF" stroke-linecap="round" stroke-width="8" x1="60" x2="50" y1="95" y2="165" stroke-linejoin="round" />
  <line stroke="#FFFFFF" stroke-linecap="round" stroke-width="8" x1="100" x2="140" y1="70" y2="95" stroke-linejoin="round" />
  <line stroke="#FFFFFF" stroke-linecap="round" stroke-width="8" x1="140" x2="150" y1="95" y2="165" stroke-linejoin="round" />
  <line stroke="#FFFFFF" stroke-linecap="round" stroke-width="8" x1="100" x2="55" y1="180" y2="225" stroke-linejoin="round" />
  <line stroke="#FFFFFF" stroke-linecap="round" stroke-width="8" x1="55" x2="35" y1="225" y2="275" stroke-linejoin="round" />
  <line stroke="#FFFFFF" stroke-linecap="round" stroke-width="8" x1="100" x2="145" y1="180" y2="225" stroke-linejoin="round" />
  <line stroke="#FFFFFF" stroke-linecap="round" stroke-width="8" x1="145" x2="165" y1="225" y2="275" stroke-linejoin="round" />
</svg>